<?xml version="1.0" standalone="no"?>
<!DOCTYPE svg PUBLIC "-//W3C//DTD SVG 20010904//EN"
 "http://www.w3.org/TR/2001/REC-SVG-20010904/DTD/svg10.dtd">
<svg version="1.0" xmlns="http://www.w3.org/2000/svg"
 width="1500.000000pt" height="1495.000000pt" viewBox="0 0 1500.000000 1495.000000"
 preserveAspectRatio="xMidYMid meet">

<g transform="translate(0.000000,1495.000000) scale(0.100000,-0.100000)"
fill="#000000" stroke="none">
<path d="M7398 10243 c12 -2 32 -2 45 0 12 2 2 4 -23 4 -25 0 -35 -2 -22 -4z"/>
<path d="M7348 1693 c12 -2 32 -2 45 0 12 2 2 4 -23 4 -25 0 -35 -2 -22 -4z"/>
<path d="M7690 1600 c-9 -6 -10 -10 -3 -10 6 0 15 5 18 10 8 12 4 12 -15 0z"/>
<path d="M7663 1573 c-8 -2 -13 -21 -12 -41 0 -29 2 -33 8 -17 5 11 6 24 4 28
-3 4 1 14 7 22 13 16 12 16 -7 8z"/>
</g>
</svg>
